<?xml version="1.0" encoding="utf-8"?>
<!-- Generator: Adobe Illustrator 27.0.0, SVG Export Plug-In . SVG Version: 6.00 Build 0)  -->
<svg version="1.1" id="Layer_1" xmlns="http://www.w3.org/2000/svg" xmlns:xlink="http://www.w3.org/1999/xlink" x="0px" y="0px"
	 viewBox="0 0 500 447.3" style="enable-background:new 0 0 500 447.3;" xml:space="preserve">
<path d="M450.52,50.19L450.52,50.19c-49.86-49.86-130.7-49.86-180.55,0L250,70.16l-19.96-19.96c-49.86-49.86-130.7-49.86-180.55,0
	l0,0c-49.86,49.86-49.86,130.7,0,180.55l53.18,53.18l77.38,77.38c3.05,3.05,6.21,5.91,9.48,8.58l28.25,28.25l32.06,32.06
	l32.02-32.02l26.94-26.94c3.86-3.06,7.59-6.36,11.16-9.93l77.38-77.38l16.62-16.62l36.56-36.56
	C500.37,180.89,500.37,100.05,450.52,50.19z"/>
</svg>
